<mxfile host="app.diagrams.net" agent="Mozilla/5.0 (iPad; CPU OS 18_2_0 like Mac OS X) AppleWebKit/605.1.15 (KHTML, like Gecko) CriOS/131.0.6778.134 Mobile/15E148 Safari/604.1" version="25.0.3">
  <diagram name="Page-1" id="TnOqNgbkGm8mOyy1PKJu">
    <mxGraphModel dx="1110" dy="887" grid="0" gridSize="10" guides="1" tooltips="1" connect="1" arrows="1" fold="1" page="0" pageScale="1" pageWidth="827" pageHeight="1169" math="0" shadow="0">
      <root>
        <mxCell id="0" />
        <mxCell id="1" parent="0" />
        <mxCell id="FWZWi-xR70AV_z4Sd7oa-1" value="Database Setup" style="text;strokeColor=none;fillColor=none;html=1;align=center;verticalAlign=middle;whiteSpace=wrap;rounded=0;fontSize=16;" vertex="1" parent="1">
          <mxGeometry x="115" y="29" width="244" height="30" as="geometry" />
        </mxCell>
        <mxCell id="FWZWi-xR70AV_z4Sd7oa-2" value="" style="rounded=0;whiteSpace=wrap;html=1;" vertex="1" parent="1">
          <mxGeometry x="81" y="72" width="300" height="200" as="geometry" />
        </mxCell>
        <mxCell id="FWZWi-xR70AV_z4Sd7oa-4" style="edgeStyle=none;curved=1;rounded=0;orthogonalLoop=1;jettySize=auto;html=1;entryX=0;entryY=0.5;entryDx=0;entryDy=0;fontSize=12;startSize=8;endSize=8;" edge="1" parent="1" source="FWZWi-xR70AV_z4Sd7oa-3" target="FWZWi-xR70AV_z4Sd7oa-2">
          <mxGeometry relative="1" as="geometry" />
        </mxCell>
        <mxCell id="FWZWi-xR70AV_z4Sd7oa-3" value="Developer (User)" style="rhombus;whiteSpace=wrap;html=1;" vertex="1" parent="1">
          <mxGeometry x="-63" y="125" width="80" height="80" as="geometry" />
        </mxCell>
        <mxCell id="FWZWi-xR70AV_z4Sd7oa-7" value="" style="edgeStyle=none;curved=1;rounded=0;orthogonalLoop=1;jettySize=auto;html=1;fontSize=12;startSize=8;endSize=8;" edge="1" parent="1" source="FWZWi-xR70AV_z4Sd7oa-5" target="FWZWi-xR70AV_z4Sd7oa-6">
          <mxGeometry relative="1" as="geometry" />
        </mxCell>
        <mxCell id="FWZWi-xR70AV_z4Sd7oa-5" value="Set up Database" style="ellipse;whiteSpace=wrap;html=1;" vertex="1" parent="1">
          <mxGeometry x="105" y="123" width="97" height="80" as="geometry" />
        </mxCell>
        <mxCell id="FWZWi-xR70AV_z4Sd7oa-6" value="Creat users table" style="ellipse;whiteSpace=wrap;html=1;" vertex="1" parent="1">
          <mxGeometry x="260" y="128" width="102" height="80" as="geometry" />
        </mxCell>
        <mxCell id="FWZWi-xR70AV_z4Sd7oa-8" value="Equip9 assignment system&lt;div&gt;&lt;br&gt;&lt;/div&gt;" style="text;strokeColor=none;fillColor=none;html=1;align=center;verticalAlign=middle;whiteSpace=wrap;rounded=0;fontSize=16;" vertex="1" parent="1">
          <mxGeometry x="153" y="89" width="164" height="30" as="geometry" />
        </mxCell>
      </root>
    </mxGraphModel>
  </diagram>
</mxfile>
